<?xml version="1.0" encoding="UTF-8" standalone="no"?>
<!-- Created with Inkscape (http://www.inkscape.org/) -->

<svg
   width="150"
   height="250"
   viewBox="0 0 39.687498 66.145834"
   version="1.1"
   id="svg5"
   inkscape:version="1.2.2 (732a01da63, 2022-12-09)"
   sodipodi:docname="RAKCUSGamesLogoNoWords.svg"
   xmlns:inkscape="http://www.inkscape.org/namespaces/inkscape"
   xmlns:sodipodi="http://sodipodi.sourceforge.net/DTD/sodipodi-0.dtd"
   xmlns="http://www.w3.org/2000/svg"
   xmlns:svg="http://www.w3.org/2000/svg">
  <sodipodi:namedview
     id="namedview7"
     pagecolor="#ffffff"
     bordercolor="#999999"
     borderopacity="1"
     inkscape:showpageshadow="0"
     inkscape:pageopacity="0"
     inkscape:pagecheckerboard="0"
     inkscape:deskcolor="#d1d1d1"
     inkscape:document-units="mm"
     showgrid="false"
     showguides="false"
     inkscape:zoom="1.2646927"
     inkscape:cx="127.69901"
     inkscape:cy="177.90883"
     inkscape:window-width="1920"
     inkscape:window-height="1057"
     inkscape:window-x="1016"
     inkscape:window-y="-8"
     inkscape:window-maximized="1"
     inkscape:current-layer="g1275" />
  <defs
     id="defs2">
    <clipPath
       clipPathUnits="userSpaceOnUse"
       id="clipPath935">
      <path
         id="path937"
         style="fill:#ff0000;fill-opacity:1;fill-rule:nonzero;stroke:none;stroke-width:0.264583"
         d="m 97.75889,89.743359 c -0.380746,0.563658 -0.784759,1.111454 -1.248502,1.611273 -0.260708,0.297543 -0.641162,0.730845 -1.073836,0.99322 -0.141761,0.864539 -0.29778,1.785286 -0.470257,2.792595 -0.0011,0.600114 -0.03937,1.190328 -0.29197,1.720307 -0.335407,1.97363 -0.701765,4.169546 -1.084689,6.686926 -0.269438,1.77157 -2.776288,2.29955 -4.345471,3.16467 -0.288452,0.15902 -0.558956,0.29467 -0.823722,0.4222 0.03308,0.0412 0.06566,0.0829 0.09664,0.12609 0.28058,0.39144 -1.490199,1.57043 -1.716693,1.73736 -0.82264,0.59901 -1.675144,1.15216 -2.523361,1.71359 -0.832762,0.54509 -1.684385,1.0603 -2.52336,1.59577 -0.92089,0.60377 -1.842511,1.20732 -2.772955,1.79627 -0.927256,0.58927 -1.844471,1.19323 -2.772442,1.78129 -0.928997,0.5807 -1.848133,1.17848 -2.742985,1.81074 -0.896496,0.61682 -1.793471,1.23321 -2.703193,1.83038 -0.160057,0.10645 -0.318032,0.21595 -0.476975,0.32401 0.04373,0.64562 -0.149841,1.25042 -0.437181,1.8464 -0.06372,0.1024 -0.135422,0.19939 -0.20464,0.29817 0.02344,0.45872 0.04062,0.91778 0.03204,1.37718 -0.0031,0.14619 -0.01373,0.29167 -0.02429,0.43718 0.589227,0.0322 1.178962,0.0534 1.768882,0.0708 0.687202,0.0193 1.375063,0.0298 2.062406,0.0388 0.681641,0.009 1.36316,0.0125 2.044838,0.0165 0.679169,0.003 1.358423,0.005 2.037601,0.007 l 2.033984,0.003 c 0.677651,2.7e-4 1.355302,8e-4 2.032953,10e-4 0.112919,4e-5 0.226078,5.3e-4 0.338997,5.3e-4 0.04574,2e-5 0.08631,0.005 0.125574,0.0109 0.0079,-3e-5 0.01585,3e-5 0.02376,0 0.359793,-0.0776 0.719613,-0.15501 1.079521,-0.23254 0.75556,-0.13228 1.515755,-0.23644 2.279446,-0.30954 0.189447,-0.006 0.378301,-0.009 0.567407,-0.007 0.195905,0.001 0.391387,0.0107 0.587044,0.0191 0.238916,-0.24632 0.563422,-0.37616 0.930177,-0.36019 0.379357,0.0165 0.803937,0.18933 1.225765,0.55036 0.371758,0.0504 0.74147,0.11302 1.10691,0.19999 0.581084,0.15643 1.140579,0.36917 1.568895,0.81132 0.216786,0.25589 0.374369,0.53462 0.494543,0.83147 0.106648,0.16164 0.246655,0.48321 0.280604,0.55604 0.22669,0.6134 0.29637,1.26678 0.361217,1.91306 0.0249,0.26912 0.04353,0.53896 0.05943,0.80874 0.06688,0.34294 0.12968,0.68667 0.171567,1.03404 0.112574,0.63883 0.269046,1.26839 0.371035,1.90893 0.124214,0.68736 0.280483,1.36783 0.48731,2.03553 0.199914,0.71627 0.331555,1.44669 0.506947,2.16886 0.07455,0.28717 0.147114,0.57474 0.221176,0.86197 0.04888,0.16139 0.0971,0.32305 0.146759,0.4842 0.03248,0.1104 0.06116,0.22193 0.09198,0.3328 0.613561,0.29509 1.223671,0.59748 1.826244,0.91519 0.935815,0.47314 1.871901,0.94705 2.780191,1.47174 0.883089,0.50198 1.755079,1.02311 2.625169,1.5472 0.80766,0.53617 1.59235,1.10543 2.38125,1.66863 0.9411,0.69306 1.87503,1.39235 2.76159,2.15542 0.85771,0.74383 1.76063,1.43713 2.56676,2.23914 0.44363,0.44032 0.87593,0.89252 1.28623,1.36374 0.62577,-0.42805 1.25213,-0.85495 1.88516,-1.27227 1.26597,-0.84719 2.51939,-1.71385 3.81372,-2.51819 1.30794,-0.82581 2.55894,-1.7375 3.87056,-2.55799 0.70996,-0.45922 1.41965,-0.91992 2.13372,-1.37356 7.9e-4,-0.0251 0.003,-0.052 0.002,-0.0749 -0.0437,-0.67637 0.10896,-1.38089 0.22893,-2.04277 0.17984,-0.98347 0.3665,-1.96562 0.56999,-2.94452 0.21828,-0.99181 0.46165,-1.97829 0.6997,-2.96571 0.1375,-0.62033 0.28158,-1.23933 0.41858,-1.85983 0.0101,-0.12433 0.021,-0.2484 0.0274,-0.37311 0.073,-0.8046 0.16231,-1.60748 0.27854,-2.40709 0.0884,-0.74743 0.14538,-1.50204 0.15038,-2.25464 v -1.70739 c -0.0787,-0.005 -0.13157,-0.009 -0.13384,-0.0124 -0.008,-0.0138 -0.0155,-0.0283 -0.0233,-0.0424 -0.008,0.001 -0.0169,0.002 -0.0253,0.003 -0.015,0.004 -0.048,0.0237 -0.045,0.0104 0.008,-0.0365 0.0147,-0.073 0.0217,-0.11007 -0.0764,-0.17437 -0.11582,-0.36721 -0.15038,-0.55449 -0.006,-0.0304 0.0605,-0.01 0.0909,-0.016 0.50335,-0.0612 1.0109,-0.0806 1.51515,-0.13177 0.4211,-0.0418 0.84114,-0.0907 1.26142,-0.13901 0.048,-0.0165 0.0941,-0.0366 0.14315,-0.0517 0.28765,-0.0735 0.57664,-0.1033 0.86558,-0.10335 0.17652,-3e-5 0.35302,0.0142 0.52916,0.0336 0.379,-0.018 0.75811,-0.0338 1.1374,-0.0372 0.0902,-8e-4 0.18058,-8e-4 0.27079,0 0.69569,0.0461 1.39124,0.1004 2.08152,0.20102 0.19219,0.0299 0.38341,0.0636 0.57413,0.10025 0.49884,-0.0319 0.99817,-0.056 1.49758,-0.0367 0.6237,0.0205 1.25379,0.0264 1.8681,0.14676 0.24438,0.0731 0.3055,0.0681 0.308,0.18552 0.74871,-0.0156 1.49749,-0.0289 2.24637,-0.0372 0.90947,-0.0338 1.81674,0.004 2.72438,0.0584 0.98063,0.0594 1.96207,0.10116 2.94401,0.13436 0.0234,10e-4 0.0469,0.002 0.0703,0.003 -0.0281,-0.16222 -0.0589,-0.32394 -0.0863,-0.48628 -0.0371,-0.0803 -0.0718,-0.16027 -0.10077,-0.23874 -0.22222,-0.23423 -0.41739,-0.50225 -0.59945,-0.78652 -0.26823,-0.39066 -0.49897,-0.80546 -0.75551,-1.20354 -0.312,-0.48292 -0.65409,-0.94348 -0.99477,-1.40612 -0.29913,-0.41292 -0.60615,-0.79312 -0.98082,-1.13739 -0.49174,-0.4083 -0.97904,-0.8145 -1.5229,-1.15187 -0.62829,-0.39323 -1.29187,-0.72863 -1.95647,-1.05575 -0.68908,-0.39129 -1.41049,-0.71647 -2.1239,-1.05885 -0.65835,-0.3583 -1.33635,-0.67834 -2.0066,-1.01286 -0.70651,-0.37636 -1.41028,-0.75738 -2.11563,-1.13585 -0.78384,-0.41922 -1.52089,-0.9172 -2.27635,-1.38338 -0.6881,-0.41206 -1.31438,-0.90941 -1.95078,-1.39423 -0.62106,-0.47438 -1.20861,-0.98143 -1.726,-1.56786 -0.15385,-0.18819 -0.37656,-0.51839 -0.54622,-0.87695 -0.26657,-0.21376 -0.52937,-0.43185 -0.79271,-0.64957 -1.24429,-1.02842 -1.36909,-2.06937 -0.85938,-2.6572 -1.09807,-1.88215 -1.90488,-3.90894 -2.5709,-5.98827 -0.62802,-2.178463 -0.88439,-4.443169 -0.80306,-6.701917 -0.14415,-0.214429 -0.27192,-0.442579 -0.401,-0.676444 -0.25696,-0.472377 -0.46039,-0.968195 -0.66146,-1.465027 -0.0953,-0.131395 -0.18865,-0.26389 -0.28009,-0.39791 z m -7.932332,34.759121 c -0.0028,0.0938 -0.0027,0.1755 -0.0041,0.26355 0.251106,-0.0598 0.524455,-0.0217 0.828373,0.0749 -0.252182,-0.15728 -0.534265,-0.25825 -0.82424,-0.33848 z m 35.814352,0.0977 v 0.0243 c 10e-4,-0.008 0.003,-0.0161 0.004,-0.0243 -10e-4,-6e-5 -0.003,5e-5 -0.004,0 z m -21.44055,0.94826 c 0.13179,-0.001 0.26621,0.017 0.40514,0.0584 0.35411,0.11977 0.67191,0.29922 0.94568,0.55708 0.30516,0.25918 0.58118,0.55323 0.66818,0.95756 0.0379,0.38334 0.007,0.76483 -0.14366,1.12396 -0.17462,0.37684 -0.40232,0.7041 -0.81494,0.84181 -0.16367,0.0431 -0.32809,0.0667 -0.49299,0.0749 -0.2555,0.078 -0.52136,0.0731 -0.80512,-0.017 -0.0816,-0.0329 -0.16202,-0.0681 -0.24082,-0.10594 -0.28221,-0.0693 -0.55784,-0.16145 -0.80563,-0.31936 -0.36215,-0.25089 -0.6623,-0.54944 -0.6289,-1.02578 0.0472,-0.20844 0.12491,-0.40204 0.23564,-0.57774 0.008,-0.14844 0.0362,-0.29606 0.093,-0.44338 0.16761,-0.36002 0.39911,-0.67471 0.74621,-0.8816 0.27273,-0.14496 0.54824,-0.24038 0.83819,-0.24288 z m -14.028603,0.0362 c 0.03251,0.0493 0.06627,0.0979 0.101804,0.14521 -0.0076,-0.0513 -0.04725,-0.0998 -0.101804,-0.14521 z m 24.480673,0.31626 c 0.14943,-7.9e-4 0.2931,0.0336 0.4129,0.10439 0.27677,-0.13265 0.60036,-0.11294 0.88625,-5.3e-4 0.18157,-0.0409 0.34876,-0.0726 0.30282,-0.0403 0.74184,0.15577 1.29746,0.60029 1.29346,1.41749 -0.14793,0.6671 -0.52162,1.13654 -1.18752,1.35289 -0.52332,0.12472 -1.05212,0.161 -1.56993,-0.0181 -0.60881,-0.30491 -1.02503,-0.7814 -1.14463,-1.46915 h 5.3e-4 c -0.15255,-0.8774 0.46513,-1.34338 1.00614,-1.3467 z m -10.52545,1.33791 c -0.0213,0 0.004,0.008 0.045,0.005 -0.022,-0.003 -0.0371,-0.005 -0.045,-0.005 z m -27.026259,0.24546 c -7.94e-4,8e-5 -0.0016,5.3e-4 -0.0026,5.3e-4 0.08417,0.0245 0.167733,0.0506 0.252698,0.0724 -0.0823,-0.0312 -0.165869,-0.0536 -0.250113,-0.0729 z m 27.635009,0.4594 c -0.0758,0.11746 -0.1788,0.21687 -0.31161,0.29507 0.0559,0.006 0.11192,0.0116 0.16795,0.015 0.0592,-0.0969 0.12115,-0.1983 0.14366,-0.31006 z m 27.41279,0.93431 c 0.0373,0.0469 0.0731,0.095 0.11007,0.14211 0.0406,-0.0211 0.0805,-0.0437 0.12144,-0.0641 -0.077,-0.0266 -0.15452,-0.0515 -0.23151,-0.078 z" />
    </clipPath>
    <clipPath
       clipPathUnits="userSpaceOnUse"
       id="clipPath1061">
      <rect
         style="fill:#000000;stroke-width:0.264583"
         id="rect1063"
         width="57.784691"
         height="24.686497"
         x="72.779449"
         y="63.27058"
         clip-path="none" />
    </clipPath>
    <clipPath
       clipPathUnits="userSpaceOnUse"
       id="clipPath1069">
      <rect
         style="fill:#000000;stroke-width:0.264583"
         id="rect1071"
         width="18.834883"
         height="40.229847"
         x="59.064732"
         y="95.271591" />
    </clipPath>
    <clipPath
       clipPathUnits="userSpaceOnUse"
       id="clipPath1080">
      <rect
         style="fill:#000000;stroke-width:0.264583"
         id="rect1082"
         width="63.453442"
         height="23.772182"
         x="29.989521"
         y="93.077232" />
    </clipPath>
    <clipPath
       clipPathUnits="userSpaceOnUse"
       id="clipPath1092">
      <path
         sodipodi:type="star"
         style="fill:#000000;stroke-width:0.264583"
         id="path1094"
         inkscape:flatsided="true"
         sodipodi:sides="5"
         sodipodi:cx="60.893364"
         sodipodi:cy="120.32382"
         sodipodi:r1="12.436025"
         sodipodi:r2="10.060955"
         sodipodi:arg1="2.1995926"
         sodipodi:arg2="2.8279111"
         inkscape:rounded="0"
         inkscape:randomized="0"
         d="m 53.578846,130.38128 -4.511007,-13.90605 11.831466,-8.58743 11.823256,8.59873 -4.524293,13.90174 z"
         inkscape:transform-center-x="-0.00044966388"
         inkscape:transform-center-y="-0.29053056"
         clip-path="url(#clipPath1080)"
         transform="matrix(0.24501016,0,0,0.24501016,49.4804,87.854395)" />
    </clipPath>
  </defs>
  <g
     inkscape:label="Layer 1"
     inkscape:groupmode="layer"
     id="layer1"
     transform="translate(-54.310286,-107.95657)">
    <g
       id="g1275"
       transform="matrix(4.8363442,0,0,8.8749025,-241.07534,-260.49892)"
       inkscape:export-filename="..\RAKCUSGamesLogoBlackv2.png"
       inkscape:export-xdpi="96"
       inkscape:export-ydpi="96">
      <path
         sodipodi:type="star"
         style="fill:#3c0050;stroke-width:0.264583"
         id="path1065"
         inkscape:flatsided="true"
         sodipodi:sides="5"
         sodipodi:cx="59.247593"
         sodipodi:cy="116.30083"
         sodipodi:r1="12.032882"
         sodipodi:r2="9.7348061"
         sodipodi:arg1="0.93641351"
         sodipodi:arg2="1.564732"
         inkscape:rounded="0"
         inkscape:randomized="0"
         d="m 66.379248,125.99256 -14.145241,0.0858 -4.452703,-13.42641 11.393319,-8.38376 11.494161,8.24496 z"
         inkscape:transform-center-x="0.0057192223"
         inkscape:transform-center-y="-0.33210149"
         clip-path="url(#clipPath1069)"
         transform="matrix(0.25357989,0,0,0.29453212,50.296834,11.826297)" />
      <path
         sodipodi:type="star"
         style="fill:#3c0050;fill-opacity:1;stroke-width:0.264583"
         id="path1016"
         inkscape:flatsided="true"
         sodipodi:sides="5"
         sodipodi:cx="99.294579"
         sodipodi:cy="93.07724"
         sodipodi:r1="17.001337"
         sodipodi:r2="13.754371"
         sodipodi:arg1="-2.8130395"
         sodipodi:arg2="-2.184721"
         inkscape:rounded="0"
         inkscape:randomized="0"
         d="M 83.20264,87.591352 99.539285,76.077664 115.53775,88.056812 109.08871,106.97402 89.104507,106.68635 Z"
         inkscape:transform-center-x="-0.018971755"
         inkscape:transform-center-y="-0.46029547"
         transform="matrix(0.25090432,0,0,0.29669377,40.271597,18.979489)"
         clip-path="url(#clipPath1061)" />
      <path
         sodipodi:type="star"
         style="fill:#ffffff;fill-opacity:1;stroke-width:0.264583"
         id="path1065-7"
         inkscape:flatsided="true"
         sodipodi:sides="5"
         sodipodi:cx="59.247593"
         sodipodi:cy="116.30083"
         sodipodi:r1="12.032882"
         sodipodi:r2="9.7348061"
         sodipodi:arg1="0.93641351"
         sodipodi:arg2="1.564732"
         inkscape:rounded="0"
         inkscape:randomized="0"
         d="m 66.379248,125.99256 -14.145241,0.0858 -4.452703,-13.42641 11.393319,-8.38376 11.494161,8.24496 z"
         inkscape:transform-center-x="0.0057233123"
         inkscape:transform-center-y="-0.33453957"
         clip-path="url(#clipPath1092)"
         transform="matrix(0.25357989,0,0,0.29669377,50.28857,11.488796)" />
    </g>
  </g>
</svg>
